<svg width="76" height="25" viewBox="0 0 76 25" fill="none" xmlns="http://www.w3.org/2000/svg">
<path d="M29.0332 11.6416L30.308 11.6504L30.2647 17.9607L30.3342 17.9612L31.3588 16.725L33.2218 14.7121L34.7302 14.7224L32.1933 17.4438L35.0097 21.8175L33.4761 21.807L31.2851 18.258L30.2616 19.3301L30.2448 21.7785L28.97 21.7697L29.0395 11.6416L29.0332 11.6416Z" fill="#7F4BDC"/>
<path d="M35.5693 18.2662C35.5847 16.0197 36.838 14.5642 38.8134 14.5778C40.8014 14.5914 41.9081 16.1073 41.8945 18.0888L41.8908 18.6251L36.8924 18.5908L36.8904 18.8811C36.8823 20.0612 37.6023 20.9117 38.8771 20.9205C39.767 20.9266 40.4137 20.5082 40.8036 19.7852L41.6193 20.4913C41.1207 21.4029 40.0878 22.0143 38.7624 22.0052C36.7934 21.9853 35.5538 20.5127 35.5693 18.2662ZM36.9055 17.6064L36.9049 17.7011L40.5464 17.7261L40.5473 17.5873C40.5554 16.4072 39.8729 15.6137 38.8063 15.6064C37.6956 15.5987 36.9135 16.4453 36.9055 17.6064Z" fill="#7F4BDC"/>
<path d="M47.9571 14.8108L49.1878 14.8192L46.0487 23.437C45.7144 24.3245 45.3715 24.625 44.286 24.6176L43.5854 24.6128L43.5929 23.5337L44.7541 23.5417L45.2432 22.1756L42.6621 14.7807L43.9369 14.7895L45.4773 19.3311L45.8405 20.6588L45.91 20.6593L46.3293 19.337L47.9571 14.8108Z" fill="#7F4BDC"/>
<path d="M49.9023 18.3648C49.9179 16.0931 51.089 14.6623 53.1149 14.6762C54.5096 14.6858 55.3822 15.3733 55.7854 16.3921L54.7279 16.9023C54.4992 16.2002 53.9278 15.7735 53.1074 15.7679C51.8893 15.7595 51.2651 16.5882 51.2571 17.7557L51.2486 18.9862C51.2407 20.1473 51.8534 20.9908 53.0715 20.9992C53.9361 21.0051 54.526 20.5737 54.8847 19.8063L55.8148 20.3869C55.3531 21.4503 54.4209 22.1002 53.064 22.0909C51.0444 22.0833 49.8866 20.6428 49.9023 18.3648Z" fill="#7F4BDC"/>
<path d="M62.4621 21.9978C61.6795 21.9924 61.3168 21.4977 61.2269 20.8092L61.1575 20.8087C60.8612 21.6839 60.1069 22.1457 59.0971 22.1388C57.6204 22.1286 56.7614 21.3024 56.7703 20.0024C56.7797 18.6331 57.7819 17.9016 59.8078 17.9155L61.152 17.9247L61.1565 17.2811C61.163 16.3345 60.6617 15.801 59.5951 15.7937C58.7621 15.7879 58.2228 16.1944 57.8526 16.7977L57.0811 16.0919C57.5092 15.3313 58.3529 14.7186 59.6656 14.7276C61.4327 14.7398 62.4363 15.6491 62.4257 17.1825L62.4001 20.9183L63.1953 20.9237L63.1879 22.0028L62.4621 21.9978ZM61.1321 19.9125L61.1396 18.8145L59.7827 18.8052C58.6215 18.7972 58.0952 19.147 58.0907 19.8095L58.0888 20.0809C58.0843 20.7372 58.5867 21.1129 59.3819 21.1184C60.3853 21.1253 61.1272 20.6192 61.1321 19.9125Z" fill="#7F4BDC"/>
<path d="M64.7033 22.0143L64.752 14.9214L66.0268 14.9301L66.0175 16.2869L66.0869 16.2874C66.3252 15.5885 66.9608 14.9366 68.0968 14.9444L68.5197 14.9473L68.511 16.222L67.8798 16.2176C66.6997 16.2095 66.0148 16.6718 66.0101 17.3659L65.9781 22.023L64.7033 22.0143Z" fill="#7F4BDC"/>
<path d="M74.2521 20.9175L74.1953 20.9171C73.8611 21.792 73.1196 22.2349 72.1477 22.2282C70.3679 22.216 69.311 20.8015 69.3268 18.4982C69.3426 16.2012 70.4189 14.795 72.1986 14.8072C73.1705 14.8139 73.9058 15.2733 74.228 16.1464L74.2848 16.1468L74.3137 11.9441L75.5885 11.9528L75.519 22.081L74.2441 22.0722L74.2521 20.9175ZM74.2595 19.8384L74.2773 17.2385C74.2825 16.4876 73.5226 15.9333 72.5633 15.9267C71.4273 15.9189 70.696 16.7217 70.6878 17.9143L70.6795 19.1196C70.6713 20.3123 71.3916 21.125 72.5276 21.1328C73.4869 21.1331 74.2543 20.5893 74.2595 19.8384Z" fill="#7F4BDC"/>
<path d="M16.0087 20.4038L3.49348 20.3757C2.67932 20.3738 2.02445 19.7097 2.02627 18.902L2.06122 3.38444C2.06305 2.57038 2.7272 1.91557 3.53505 1.91739L14.7123 1.94256C15.5265 1.94439 16.1813 2.60848 16.1795 3.41623L16.1625 10.9762C16.1618 11.3107 16.4325 11.5763 16.7607 11.5771C17.0952 11.5778 17.3609 11.3071 17.3616 10.9789L17.3787 3.41893C17.382 1.94227 16.1856 0.740577 14.7087 0.737251L3.53144 0.712081C2.0546 0.708755 0.852769 1.90505 0.849443 3.38171L0.814499 18.8993C0.811174 20.3759 2.00761 21.5777 3.48445 21.581L15.9997 21.6092C16.3342 21.6099 16.5999 21.3392 16.6006 21.011C16.6014 20.6829 16.3432 20.4046 16.0087 20.4038Z" fill="#7F4BDC"/>
<path d="M26.1595 16.2493C26.1472 13.3212 23.7713 11.776 23.6705 11.7127C23.5759 11.6494 23.4624 11.6176 23.3488 11.6173L19.9912 11.6098C19.2211 11.6648 17.8314 12.1981 17.5311 13.8508L17.5183 13.9139L15.4671 13.9093C15.1326 13.9085 14.867 14.1793 14.8662 14.5074C14.8655 14.8356 15.1363 15.1075 15.4644 15.1082L18.071 15.1141C18.4055 15.1149 18.6712 14.8441 18.6719 14.516C18.6753 13.0015 19.8875 12.8275 20.0264 12.8089L23.1568 12.8159L23.1757 12.8349C23.5915 13.1514 24.9458 14.3282 24.9541 16.2466C24.9371 18.1713 23.5775 19.342 23.1603 19.6566L23.1413 19.6755L20.074 19.6686C19.8342 19.6491 18.6608 19.4634 18.6642 17.9552C18.6649 17.6208 18.3941 17.3551 18.0659 17.3544L8.90198 17.3338L7.60479 16.0309L7.6138 12.0299C7.61456 11.6955 7.34376 11.4298 7.01557 11.4291C6.68108 11.4283 6.4154 11.6991 6.41467 12.0272L6.4051 16.2742C6.40475 16.432 6.4675 16.5899 6.58086 16.6975L8.23069 18.3546C8.34404 18.4684 8.49537 18.5318 8.65316 18.5322L17.5142 18.5521L17.5267 18.6153C17.8259 20.2693 19.2447 20.8089 20.0335 20.8675L23.3406 20.8749C23.4542 20.8752 23.5678 20.8439 23.6627 20.781C23.7512 20.7181 26.1403 19.19 26.1595 16.2493Z" fill="#7F4BDC"/>
<path d="M21.4647 16.2381C21.4635 16.7556 21.8854 17.1793 22.4029 17.1805C22.9205 17.1817 23.3443 16.7598 23.3454 16.2424C23.3466 15.7249 22.9247 15.3011 22.4072 15.3C21.8897 15.2988 21.4658 15.7207 21.4647 16.2381Z" fill="#7F4BDC"/>
<path d="M9.38791 9.04907L9.37563 14.5013C9.37488 14.8358 9.64567 15.1015 9.97386 15.1022C10.302 15.1029 10.5741 14.8322 10.5748 14.504L10.5876 8.79934C10.588 8.64157 10.5252 8.48368 10.4119 8.37614L6.66511 4.61292L6.66519 4.57506C6.66523 4.55612 6.67158 4.54351 6.67161 4.53089C6.67279 4.00712 6.25087 3.58336 5.73334 3.5822C5.21582 3.58103 4.79202 4.00288 4.79085 4.52034C4.78969 5.0378 5.21158 5.46155 5.72911 5.46272C5.74175 5.45644 5.75437 5.45649 5.77332 5.45022L5.81119 5.45031L9.38791 9.04907Z" fill="#7F4BDC"/>
<path d="M12.0074 6.16484L12.0326 6.19012L12.0138 14.5326C12.013 14.8671 12.2838 15.1327 12.612 15.1335C12.9465 15.1342 13.2122 14.8635 13.2129 14.5353L13.2318 6.14864L13.2571 6.12347C13.4405 5.94088 13.542 5.7013 13.5426 5.44888C13.5438 4.92511 13.1219 4.50136 12.5981 4.50018C12.0742 4.499 11.6504 4.92085 11.6492 5.44462C11.6549 5.7223 11.7806 5.97501 12.0074 6.16484Z" fill="#7F4BDC"/>
</svg>
