<svg width="148" height="47" viewBox="0 0 148 47" fill="none" xmlns="http://www.w3.org/2000/svg">
<path d="M55.834 21.5205H58.3577V33.7838H58.4952L60.5067 31.368L64.1673 27.4314H67.1534L62.1684 32.7536L67.8031 41.2153H64.7671L60.3817 34.3479L58.3702 36.4449V41.203H55.8465V21.5205H55.834Z" fill="white"/>
<path d="M68.8657 34.3061C68.8657 29.9403 71.327 27.0952 75.2376 27.0952C79.1731 27.0952 81.3845 30.0262 81.3845 33.8769V34.9193H71.4894V35.4835C71.4894 37.7767 72.9262 39.42 75.4499 39.42C77.2116 39.42 78.4859 38.5984 79.2481 37.1881L80.8723 38.5493C79.8978 40.3275 77.8613 41.5293 75.2376 41.5293C71.3395 41.5171 68.8657 38.6719 68.8657 34.3061ZM71.5019 33.0062V33.1902H78.7108V32.9204C78.7108 30.6271 77.349 29.0942 75.2376 29.0942C73.0387 29.0942 71.5019 30.7497 71.5019 33.0062Z" fill="white"/>
<path d="M93.3397 27.4268H95.776L89.679 44.2153C89.0293 45.9444 88.3547 46.5331 86.2057 46.5331H84.8189V44.436H87.1178L88.0673 41.7749L82.8574 27.439H85.3812L88.4921 36.2441L89.2293 38.8194H89.3667L90.1788 36.2441L93.3397 27.4268Z" fill="white"/>
<path d="M97.2388 34.3061C97.2388 29.8913 99.5376 27.0952 103.548 27.0952C106.309 27.0952 108.046 28.4197 108.858 30.3941L106.772 31.3997C106.309 30.0384 105.172 29.2168 103.548 29.2168C101.137 29.2168 99.9125 30.8356 99.9125 33.1043V35.4956C99.9125 37.7521 101.137 39.3831 103.548 39.3831C105.26 39.3831 106.422 38.5369 107.121 37.0408L108.97 38.1568C108.071 40.2293 106.234 41.5046 103.548 41.5046C99.5501 41.5169 97.2388 38.7331 97.2388 34.3061Z" fill="white"/>
<path d="M122.15 41.198C120.601 41.198 119.876 40.2415 119.689 38.9048H119.552C118.977 40.6094 117.49 41.5169 115.491 41.5169C112.568 41.5169 110.856 39.9227 110.856 37.3964C110.856 34.7353 112.83 33.3004 116.84 33.3004H119.502V32.0496C119.502 30.2101 118.502 29.1799 116.391 29.1799C114.742 29.1799 113.68 29.977 112.955 31.1543L111.418 29.7931C112.255 28.3092 113.917 27.1074 116.516 27.1074C120.014 27.1074 122.013 28.8611 122.013 31.8411V39.101H123.587V41.198H122.15ZM119.489 37.1634V35.0296H116.803C114.504 35.0296 113.467 35.7163 113.467 37.004V37.5313C113.467 38.8067 114.467 39.5302 116.041 39.5302C118.027 39.5302 119.489 38.5369 119.489 37.1634Z" fill="white"/>
<path d="M126.585 41.1991V27.415H129.109V30.0517H129.246C129.708 28.6905 130.958 27.415 133.207 27.415H134.044V29.8923H132.794C130.458 29.8923 129.109 30.7997 129.109 32.1487V41.1991H126.585Z" fill="white"/>
<path d="M145.476 38.9419H145.364C144.714 40.6466 143.252 41.5172 141.328 41.5172C137.805 41.5172 135.693 38.7825 135.693 34.3064C135.693 29.8425 137.805 27.0955 141.328 27.0955C143.252 27.0955 144.714 27.9785 145.364 29.6709H145.476V21.5034H148V41.1861H145.476V38.9419ZM145.476 36.8449V31.7924C145.476 30.333 143.964 29.2661 142.065 29.2661C139.816 29.2661 138.38 30.8358 138.38 33.1536V35.4959C138.38 37.8137 139.816 39.3834 142.065 39.3834C143.964 39.3711 145.476 38.3042 145.476 36.8449Z" fill="white"/>
<path d="M30.0851 38.7459H5.30987C3.69817 38.7459 2.39883 37.4582 2.39883 35.8885V5.73286C2.39883 4.15089 3.71066 2.87548 5.30987 2.87548H27.4364C29.0481 2.87548 30.3475 4.16315 30.3475 5.73286V20.4244C30.3475 21.0743 30.8847 21.5894 31.5344 21.5894C32.1966 21.5894 32.7213 21.0621 32.7213 20.4244V5.73286C32.7213 2.86323 30.3475 0.533203 27.4239 0.533203H5.29737C2.37381 0.533203 0 2.86323 0 5.73286V35.8885C0 38.7581 2.37381 41.0882 5.29737 41.0882H30.0726C30.7348 41.0882 31.2595 40.5609 31.2595 39.9232C31.2595 39.2855 30.7473 38.7459 30.0851 38.7459Z" fill="white"/>
<path d="M50.1622 30.6272C50.1247 24.9369 45.4146 21.9447 45.2147 21.822C45.0273 21.6994 44.8024 21.6381 44.5775 21.6381H37.9308C36.4065 21.7484 33.6579 22.7908 33.0707 26.0038L33.0457 26.1265H28.9853C28.3231 26.1265 27.7983 26.6539 27.7983 27.2916C27.7983 27.9293 28.3356 28.4565 28.9853 28.4565H34.1452C34.8073 28.4565 35.3321 27.9293 35.3321 27.2916C35.3321 24.3483 37.7309 24.0049 38.0058 23.9681H44.2027L44.2402 24.005C45.0648 24.6181 47.7509 26.8991 47.7759 30.6272C47.7509 34.3675 45.0648 36.6486 44.2402 37.2617L44.2027 37.2985H38.1307C37.6559 37.2617 35.3321 36.906 35.3321 33.9751C35.3321 33.3251 34.7948 32.8101 34.1452 32.8101H16.0042L13.4305 30.2838V22.5088C13.4305 21.8588 12.8932 21.3438 12.2435 21.3438C11.5814 21.3438 11.0566 21.8711 11.0566 22.5088V30.7621C11.0566 31.0687 11.1816 31.3753 11.4065 31.5838L14.6798 34.7968C14.9047 35.0175 15.2046 35.1401 15.5169 35.1401H33.0582L33.0832 35.2628C33.6829 38.4758 36.494 39.5182 38.0557 39.6286H44.6025C44.8274 39.6286 45.0523 39.5672 45.2397 39.4446C45.4146 39.322 50.1372 36.3419 50.1622 30.6272Z" fill="white"/>
<path d="M40.8682 30.6271C40.8682 31.6327 41.7053 32.4543 42.7298 32.4543C43.7542 32.4543 44.5913 31.6327 44.5913 30.6271C44.5913 29.6214 43.7542 28.7998 42.7298 28.7998C41.7053 28.7998 40.8682 29.6214 40.8682 30.6271Z" fill="white"/>
<path d="M16.9291 16.7084V27.3039C16.9291 27.9539 17.4663 28.469 18.116 28.469C18.7657 28.469 19.3029 27.9416 19.3029 27.3039V16.2179C19.3029 15.9113 19.178 15.6047 18.9531 15.3963L11.5193 8.09952V8.02595C11.5193 7.98916 11.5318 7.96462 11.5318 7.94009C11.5318 6.92223 10.6947 6.10059 9.67016 6.10059C8.64567 6.10059 7.80859 6.92222 7.80859 7.92782C7.80859 8.93342 8.64567 9.75505 9.67016 9.75505C9.69515 9.74279 9.72015 9.74284 9.75763 9.73057H9.83259L16.9291 16.7084Z" fill="white"/>
<path d="M22.1013 11.0915L22.1513 11.1406V27.3527C22.1513 28.0027 22.6885 28.5178 23.3382 28.5178C24.0004 28.5178 24.5251 27.9904 24.5251 27.3527V11.0547L24.5751 11.0057C24.9374 10.6501 25.1373 10.184 25.1373 9.6935C25.1373 8.67565 24.3002 7.854 23.2632 7.854C22.2262 7.854 21.3892 8.67565 21.3892 9.6935C21.4017 10.2331 21.6515 10.7236 22.1013 11.0915Z" fill="white"/>
</svg>
