<svg width="148" height="47" viewBox="0 0 148 47" fill="none" xmlns="http://www.w3.org/2000/svg"><path d="M55.834 21.52h2.524v12.264h.137l2.012-2.416 3.66-3.937h2.986l-4.985 5.323 5.635 8.461h-3.036l-4.385-6.867-2.012 2.097v4.758h-2.523V21.52h-.013zM68.866 34.306c0-4.366 2.461-7.21 6.372-7.21 3.935 0 6.147 2.93 6.147 6.78v1.043h-9.896v.565c0 2.293 1.437 3.936 3.96 3.936 1.763 0 3.037-.822 3.8-2.232l1.623 1.361c-.974 1.779-3.01 2.98-5.634 2.98-3.898-.012-6.372-2.857-6.372-7.223zm2.636-1.3v.184h7.209v-.27c0-2.293-1.362-3.826-3.473-3.826-2.2 0-3.736 1.656-3.736 3.912zM93.34 27.427h2.436l-6.097 16.788c-.65 1.73-1.324 2.318-3.473 2.318h-1.387v-2.097h2.299l.95-2.661-5.21-14.336h2.523l3.111 8.805.737 2.575h.138l.812-2.575 3.16-8.817zM97.239 34.306c0-4.415 2.299-7.21 6.309-7.21 2.761 0 4.498 1.324 5.31 3.298l-2.086 1.006c-.463-1.362-1.6-2.183-3.224-2.183-2.411 0-3.636 1.619-3.636 3.887v2.392c0 2.256 1.225 3.887 3.636 3.887 1.712 0 2.874-.846 3.573-2.342l1.849 1.116c-.899 2.072-2.736 3.348-5.422 3.348-3.998.012-6.31-2.772-6.31-7.199zM122.15 41.198c-1.549 0-2.274-.956-2.461-2.293h-.137c-.575 1.704-2.062 2.612-4.061 2.612-2.923 0-4.635-1.594-4.635-4.12 0-2.662 1.974-4.097 5.984-4.097h2.662v-1.25c0-1.84-1-2.87-3.111-2.87-1.649 0-2.711.797-3.436 1.974l-1.537-1.36c.837-1.485 2.499-2.687 5.098-2.687 3.498 0 5.497 1.754 5.497 4.734v7.26h1.574v2.097h-1.437zm-2.661-4.035V35.03h-2.686c-2.299 0-3.336.686-3.336 1.974v.527c0 1.276 1 2 2.574 2 1.986 0 3.448-.994 3.448-2.368zM126.585 41.2V27.414h2.524v2.637h.137c.462-1.361 1.712-2.637 3.961-2.637h.837v2.477h-1.25c-2.336 0-3.685.908-3.685 2.257v9.05h-2.524zM145.476 38.942h-.112c-.65 1.705-2.112 2.575-4.036 2.575-3.523 0-5.635-2.735-5.635-7.21 0-4.465 2.112-7.212 5.635-7.212 1.924 0 3.386.884 4.036 2.576h.112v-8.168H148v19.683h-2.524v-2.244zm0-2.097v-5.053c0-1.459-1.512-2.526-3.411-2.526-2.249 0-3.685 1.57-3.685 3.888v2.342c0 2.318 1.436 3.887 3.685 3.887 1.899-.012 3.411-1.079 3.411-2.538zM30.085 38.746H5.31c-1.612 0-2.911-1.288-2.911-2.858V5.733c0-1.582 1.312-2.858 2.91-2.858h22.127c1.612 0 2.912 1.288 2.912 2.858v14.691c0 .65.537 1.165 1.186 1.165.663 0 1.187-.527 1.187-1.165V5.733c0-2.87-2.373-5.2-5.297-5.2H5.297C2.374.533 0 2.863 0 5.733v30.156c0 2.87 2.374 5.2 5.297 5.2h24.776c.662 0 1.186-.528 1.186-1.166 0-.638-.512-1.177-1.174-1.177z" fill="#fff"/><path d="M50.162 30.627c-.037-5.69-4.747-8.682-4.947-8.805a1.168 1.168 0 0 0-.638-.184h-6.646c-1.524.11-4.273 1.153-4.86 4.366l-.025.122h-4.06c-.663 0-1.188.528-1.188 1.166 0 .637.538 1.164 1.187 1.164h5.16c.662 0 1.187-.527 1.187-1.164 0-2.944 2.399-3.287 2.674-3.324h6.197l.037.037c.825.613 3.51 2.894 3.536 6.622-.025 3.74-2.711 6.022-3.536 6.635l-.037.036H38.13c-.475-.036-2.799-.392-2.799-3.323 0-.65-.537-1.165-1.187-1.165h-18.14l-2.574-2.526v-7.775c0-.65-.538-1.165-1.188-1.165-.662 0-1.186.527-1.186 1.165v8.253c0 .307.125.613.35.822l3.273 3.213c.225.22.525.343.837.343h17.541l.025.123c.6 3.213 3.411 4.255 4.973 4.366h6.547c.224 0 .45-.062.637-.184.175-.123 4.897-3.103 4.922-8.818z" fill="#fff"/><path d="M40.868 30.627c0 1.006.837 1.827 1.862 1.827 1.024 0 1.861-.821 1.861-1.827S43.754 28.8 42.73 28.8c-1.025 0-1.862.821-1.862 1.827zM16.93 16.708v10.596c0 .65.536 1.165 1.186 1.165.65 0 1.187-.527 1.187-1.165V16.218a1.13 1.13 0 0 0-.35-.822L11.52 8.1v-.074c0-.037.013-.061.013-.086 0-1.018-.837-1.84-1.862-1.84-1.024 0-1.861.822-1.861 1.828 0 1.005.837 1.827 1.861 1.827.025-.012.05-.012.088-.024h.075l7.096 6.977zM22.101 11.091l.05.05v16.212c0 .65.538 1.165 1.187 1.165.662 0 1.187-.528 1.187-1.165V11.055l.05-.05c.362-.355.562-.821.562-1.312 0-1.017-.837-1.839-1.874-1.839-1.037 0-1.874.822-1.874 1.84.013.54.262 1.03.712 1.397z" fill="#fff"/></svg>