<svg width="76" height="25" viewBox="0 0 76 25" fill="none" xmlns="http://www.w3.org/2000/svg"><path d="M29.033 11.642l1.275.008-.043 6.31.07.001 1.024-1.236 1.863-2.013 1.508.01-2.537 2.722 2.817 4.373-1.534-.01-2.19-3.549-1.024 1.072-.017 2.449-1.275-.01.07-10.127h-.007zM35.57 18.266c.015-2.246 1.268-3.702 3.243-3.688 1.988.013 3.095 1.53 3.081 3.51l-.003.537-4.999-.034-.002.29c-.008 1.18.712 2.03 1.987 2.04.89.006 1.537-.413 1.927-1.136l.815.706c-.498.912-1.531 1.523-2.857 1.514-1.969-.02-3.208-1.492-3.193-3.739zm1.336-.66l-.001.095 3.641.025.001-.139c.008-1.18-.674-1.973-1.74-1.98-1.111-.008-1.894.838-1.901 2zM47.957 14.81l1.23.01-3.138 8.617c-.335.887-.678 1.188-1.763 1.18l-.7-.004.007-1.08 1.161.009.49-1.366-2.582-7.395 1.275.008 1.54 4.542.364 1.328h.069l.42-1.322 1.627-4.526zM49.902 18.365c.016-2.272 1.187-3.703 3.213-3.689 1.395.01 2.267.697 2.67 1.716l-1.057.51c-.229-.702-.8-1.129-1.62-1.134-1.219-.009-1.843.82-1.85 1.988l-.01 1.23c-.007 1.161.605 2.005 1.824 2.013.864.006 1.454-.425 1.813-1.193l.93.58c-.462 1.064-1.394 1.714-2.751 1.705-2.02-.008-3.177-1.448-3.162-3.726zM62.462 21.998c-.783-.006-1.145-.5-1.235-1.189h-.07c-.296.875-1.05 1.337-2.06 1.33-1.477-.01-2.336-.837-2.327-2.137.01-1.369 1.012-2.1 3.038-2.086l1.344.009.005-.644c.006-.947-.495-1.48-1.562-1.487-.833-.006-1.372.4-1.742 1.004l-.772-.706c.428-.76 1.272-1.373 2.585-1.364 1.767.012 2.77.921 2.76 2.455l-.026 3.735.795.006-.007 1.079-.726-.005zm-1.33-2.085l.008-1.099-1.357-.009c-1.162-.008-1.688.342-1.692 1.005l-.002.27c-.005.657.498 1.033 1.293 1.038 1.003.007 1.745-.499 1.75-1.205zM64.703 22.014l.049-7.093 1.275.01-.01 1.356h.07c.238-.698.874-1.35 2.01-1.343l.423.003-.009 1.275-.631-.004c-1.18-.009-1.865.454-1.87 1.148l-.032 4.657-1.275-.009zM74.252 20.918h-.057c-.334.874-1.075 1.317-2.047 1.31-1.78-.012-2.837-1.427-2.821-3.73.016-2.297 1.092-3.703 2.872-3.69.972.006 1.707.465 2.029 1.338h.057l.029-4.202 1.275.009-.07 10.128-1.275-.009.008-1.154zm.008-1.08l.017-2.6c.005-.75-.754-1.305-1.714-1.311-1.136-.008-1.867.795-1.875 1.987l-.008 1.206c-.009 1.192.712 2.005 1.848 2.013.959 0 1.726-.544 1.731-1.295zM16.009 20.404l-12.516-.028a1.472 1.472 0 0 1-1.467-1.474l.035-15.518a1.472 1.472 0 0 1 1.474-1.467l11.177.026a1.472 1.472 0 0 1 1.468 1.473l-.017 7.56a.6.6 0 1 0 1.199.003l.017-7.56a2.677 2.677 0 0 0-2.67-2.682L3.53.712A2.677 2.677 0 0 0 .85 3.382L.814 18.899a2.677 2.677 0 0 0 2.67 2.682L16 21.609a.6.6 0 0 0 .6-.598.6.6 0 0 0-.591-.607z" fill="#7F4BDC"/><path d="M26.16 16.25c-.013-2.929-2.389-4.474-2.49-4.537a.583.583 0 0 0-.321-.096l-3.358-.007c-.77.055-2.16.588-2.46 2.24l-.013.064-2.05-.005a.6.6 0 1 0-.004 1.2l2.607.005a.6.6 0 0 0 .6-.598c.004-1.514 1.216-1.688 1.355-1.707l3.13.007.02.019c.416.316 1.77 1.493 1.778 3.412-.017 1.924-1.377 3.095-1.794 3.41l-.019.018-3.067-.006c-.24-.02-1.413-.206-1.41-1.714a.6.6 0 0 0-.598-.6l-9.164-.021-1.297-1.303.009-4.001a.6.6 0 1 0-1.2-.003l-.009 4.247c0 .158.063.316.176.424l1.65 1.657a.598.598 0 0 0 .422.177l8.861.02.013.063c.299 1.654 1.718 2.194 2.506 2.253l3.308.007a.582.582 0 0 0 .322-.094c.088-.063 2.477-1.591 2.497-4.532z" fill="#7F4BDC"/><path d="M21.465 16.238a.943.943 0 0 0 .938.942.943.943 0 0 0 .942-.938.943.943 0 0 0-.938-.942.943.943 0 0 0-.942.938zM9.388 9.05L9.376 14.5a.6.6 0 1 0 1.199.003l.013-5.705a.586.586 0 0 0-.176-.423L6.665 4.613v-.038c0-.019.007-.031.007-.044a.944.944 0 0 0-.939-.949.943.943 0 0 0-.942.938.943.943 0 0 0 .938.943c.013-.007.025-.007.044-.013h.038l3.577 3.6zM12.007 6.165l.026.025-.02 8.343a.6.6 0 1 0 1.2.002l.019-8.386.025-.026a.945.945 0 0 0-.659-1.623.945.945 0 0 0-.949.945c.006.277.132.53.358.72z" fill="#7F4BDC"/></svg>